# xmcd
#
# Track frame offsets: 
#        150
#        21460
#        44185
#        61285
#        87550
#        109158
#        125610
#        137910
#        152685
#        162735
#        175060
#        192535
#
# Disc length: 2819 seconds
#
# Revision: 0
# Processed by: cddbd v1.5.2PL0 Copyright (c) Steve Scherf et al.
# Submitted via: ExactAudioCopyFreeDBPlugin 1.0
#
DISCID=b80b010c
DTITLE=Blues Lee - Indeed
DYEAR=2006
DGENRE=Blues
TTITLE0=Love Engineer
TTITLE1=I'm Leaving
TTITLE2=I've Been There
TTITLE3=Caribbean Duck
TTITLE4=How How
TTITLE5=Rusty Guns
TTITLE6=Lil' Demon
TTITLE7=Aristocratic Lady
TTITLE8=My Little Baby Girl
TTITLE9=Doublehearted Ace
TTITLE10=Jimmy Johnson
TTITLE11=Ooh Baby
EXTD=
EXTT0=
EXTT1=
EXTT2=
EXTT3=
EXTT4=
EXTT5=
EXTT6=
EXTT7=
EXTT8=
EXTT9=
EXTT10=
EXTT11=
PLAYORDER=
